<svg xmlns="http://www.w3.org/2000/svg" width="1534.945" height="459.894" viewBox="0 0 1534.945 459.894">
  <g id="login-background" transform="translate(4.3 -242.608)" opacity="0.33">
    <g id="Group_11189" data-name="Group 11189" transform="translate(99.472 356.634)">
      <g id="Group_11182" data-name="Group 11182" transform="translate(1272.759 63.857)">
        <path id="Path_3485" data-name="Path 3485" d="M888.639,330.431h-1.088a5.947,5.947,0,0,1-5.488-3.634l-12.54-29.556c-.007-.019-.009-.038-.018-.058s-.021-.035-.03-.052l-4.745-11.186a2.44,2.44,0,0,0-3.405-1.193,20.433,20.433,0,0,1-24.009-3.519l-3.107-3.107a5.8,5.8,0,0,1-1.578-5.752,15.051,15.051,0,0,0-3.734-15.18,2.44,2.44,0,0,0-3.435.014l-15.421,15.421,0,0-12.293,12.293-3.516,3.515a8.375,8.375,0,0,0,0,11.848l61.258,61.258c.454.454.93.879,1.417,1.286H799.469a2.44,2.44,0,0,0,0,4.88h94.9a13.361,13.361,0,0,0,13.345-13.335v-.005l.011-4.847v-.009A19.14,19.14,0,0,0,888.639,330.431Zm-61.646-67.852a10.324,10.324,0,0,1,.987,8.315,10.584,10.584,0,0,0,2.78,10.683l3.1,3.1a25.377,25.377,0,0,0,27.364,5.5l2.825,6.657L859.5,298.77a2.44,2.44,0,1,0,1.9,4.494l4.553-1.929,2.913,6.867-4.558,1.929a2.44,2.44,0,1,0,1.9,4.494l4.56-1.931,2.913,6.865-4.564,1.934a2.439,2.439,0,1,0,1.9,4.492l4.567-1.934,1.973,4.651a10.827,10.827,0,0,0,9.982,6.61h1.087a14.252,14.252,0,0,1,14.212,14.207l-.005,2.411H874.9a16.07,16.07,0,0,1-11.437-4.737L820.326,304.06l.251-.252a17.051,17.051,0,0,0,0-24.087l-5.364-5.364Zm-15.231,15.229,5.364,5.364a12.167,12.167,0,0,1,0,17.188l-.25.25L802.92,286.653Zm82.609,85.026h-24a16.07,16.07,0,0,1-11.436-4.735l-61.258-61.26a3.5,3.5,0,0,1,0-4.946l1.791-1.791,60.54,60.54a20.918,20.918,0,0,0,14.888,6.168H902.48A8.483,8.483,0,0,1,894.372,362.834Z" transform="translate(-777.377 -256.494)" fill="#dce1e8"/>
        <path id="Path_3486" data-name="Path 3486" d="M787.328,265.133h16.857a2.44,2.44,0,1,0,0-4.88H787.328a2.44,2.44,0,0,0,0,4.88Z" transform="translate(-782.521 -253.686)" fill="#dce1e8"/>
        <path id="Path_3487" data-name="Path 3487" d="M825.166,305.918a2.439,2.439,0,0,0-2.441-2.439h-28.4a2.44,2.44,0,0,0,0,4.88h28.4A2.441,2.441,0,0,0,825.166,305.918Z" transform="translate(-777.295 -221.386)" fill="#dce1e8"/>
        <path id="Path_3488" data-name="Path 3488" d="M803.273,288.7a2.44,2.44,0,0,0-2.441-2.439H785.973a2.44,2.44,0,0,0,0,4.88h14.858A2.441,2.441,0,0,0,803.273,288.7Z" transform="translate(-783.534 -234.255)" fill="#dce1e8"/>
      </g>
      <g id="Group_11183" data-name="Group 11183" transform="translate(956.865 99.084)">
        <path id="Path_3489" data-name="Path 3489" d="M704.067,276.656h-99.4a1.932,1.932,0,0,0-1.735,2.783l7.075,14.423a1.939,1.939,0,0,0,1.406,1.054l34.733,6.012a5.668,5.668,0,0,0-.723.433,5.786,5.786,0,0,0-2.291,3.84l-2.165,15.1-10.878,6.328a5.808,5.808,0,0,0-2.163,7.826l13.775,24.83a5.8,5.8,0,0,0,6.858,2.7l6.049-1.964,3.1,16.953a5.8,5.8,0,0,0,5.7,4.753,5.609,5.609,0,0,0,1.05-.1,5.791,5.791,0,0,0,4.649-6.743l-3.383-18.475,3.554-1.155,12.758,9.383a5.771,5.771,0,0,0,8.111-1.228,5.79,5.79,0,0,0-1.232-8.1l-15.162-11.154a5.786,5.786,0,0,0-5.221-.846l-19.017,6.168-8.7-15.681,8.408-4.883a5.774,5.774,0,0,0,2.813-4.186l2.547-17.7,18.241,14.836L680,340.3a1.875,1.875,0,0,0,.339.564l15.507,17.92,6.377,19.793a1.934,1.934,0,0,0,1.84,1.34,1.957,1.957,0,0,0,.3-.023,1.934,1.934,0,0,0,1.634-1.91v-99.4A1.933,1.933,0,0,0,704.067,276.656Zm-38.754,98.925a1.926,1.926,0,0,1-1.553,2.244l-.011,0a1.9,1.9,0,0,1-2.231-1.552l-3.2-17.462,3.7-1.2ZM650.79,306.3l-2.574,17.874a1.929,1.929,0,0,1-.935,1.394L637.243,331.4a1.932,1.932,0,0,0-.72,2.609l10.393,18.73a1.934,1.934,0,0,0,2.287.9l20.535-6.661a1.926,1.926,0,0,1,1.733.283l15.164,11.154a1.925,1.925,0,0,1,.405,2.7l-.005.007a1.956,1.956,0,0,1-2.694.4l-13.562-9.971a1.941,1.941,0,0,0-1.74-.283l-6.056,1.966c-.018.005-.037.007-.054.012l-7.41,2.408c-.016.005-.03.014-.046.019l-8.109,2.633a1.929,1.929,0,0,1-2.28-.9l-13.775-24.83a1.928,1.928,0,0,1,.72-2.6l11.7-6.8a1.938,1.938,0,0,0,.942-1.4l2.3-16.019a1.945,1.945,0,0,1,.767-1.289,1.935,1.935,0,0,1,3.061,1.838Zm51.344,59.381-2.726-8.462a1.944,1.944,0,0,0-.379-.673l-15.545-17.963-7.235-18.6a1.922,1.922,0,0,0-.582-.8L649.4,297.819a1.932,1.932,0,0,0-.889-.405l-35.46-6.138-5.275-10.754h94.363Z" transform="translate(-602.738 -276.656)" fill="#dce1e8"/>
        <path id="Path_3490" data-name="Path 3490" d="M630.063,302.632a10.145,10.145,0,1,0-10.145,10.146A10.157,10.157,0,0,0,630.063,302.632Zm-10.145,6.28a6.28,6.28,0,1,1,6.279-6.28A6.287,6.287,0,0,1,619.918,308.912Z" transform="translate(-597.482 -264.827)" fill="#dce1e8"/>
      </g>
      <g id="Group_11184" data-name="Group 11184" transform="translate(0 48)">
        <path id="Path_3491" data-name="Path 3491" d="M163.607,315.294a27.56,27.56,0,0,0-6.337.762l-3.065-9.138c-.005-.014,0-.026-.009-.038l-2.464-7.335,0-.005-2.053-6.124,7.6.861a7.677,7.677,0,0,0,8.479-6.736l0-.012a7.685,7.685,0,0,0-6.751-8.455l-19.663-2.238L126.185,262.4a7.662,7.662,0,0,0-11.909.776L93.963,292.131a7.643,7.643,0,0,0,2.4,10.98l4.461,2.623-6.76,12a27.667,27.667,0,1,0,15.65,31.44,7.742,7.742,0,0,0,.439,1.693,7.672,7.672,0,0,0,7.113,4.824,7.682,7.682,0,0,0,7.036-4.632l7.721-17.89,18.711-20.542,1.693,5.049a27.635,27.635,0,1,0,11.177-2.38Zm-17.834-17.467-27.909.164-6.6-3.872,10.054-14.327,8.638,9.477a7.554,7.554,0,0,0,4.8,2.457l9.327,1.055Zm-28.1,29.967-4.566-14.844,8.754,5.146Zm-12.446-19.475,1.361.8,7.966,25.9-2.334,5.408h-1.906a27.671,27.671,0,0,0-11.8-20.186Zm-.04,32.1H87.138l8.851-15.709A22.567,22.567,0,0,1,105.187,340.423Zm-22.419,25.12a22.572,22.572,0,1,1,8.792-43.361L80.551,341.723a2.551,2.551,0,0,0,2.222,3.8h22.412A22.6,22.6,0,0,1,82.768,365.543Zm36.856-16.517a2.589,2.589,0,0,1-3.376,1.344,2.5,2.5,0,0,1-1.349-1.389,2.539,2.539,0,0,1,.031-1.962l1.307-3.028.019-.044,11.182-25.9a2.552,2.552,0,0,0-1.05-3.211L98.932,298.7a2.474,2.474,0,0,1-1.188-1.649,2.534,2.534,0,0,1,.4-1.994L118.455,266.1a2.5,2.5,0,0,1,1.925-1.076q.084-.005.168-.005a2.561,2.561,0,0,1,1.877.825l13.793,15.134a2.548,2.548,0,0,0,1.6.816l20.612,2.348a2.547,2.547,0,1,1-.573,5.062l-22.541-2.553a2.488,2.488,0,0,1-1.58-.814L122.944,274a2.549,2.549,0,0,0-3.973.254l-13.473,19.2a2.552,2.552,0,0,0,.8,3.666l26.554,15.58a2.572,2.572,0,0,1,1.057,3.224Zm18.615-30.26.353-.818a7.683,7.683,0,0,0-3.15-9.643l-8.967-5.261,21.007-.124,1.4,4.165Zm25.368,46.777a22.555,22.555,0,0,1-9.543-43l7.125,21.239a2.552,2.552,0,1,0,4.838-1.623L158.9,320.9a22.57,22.57,0,1,1,4.712,44.642Z" transform="translate(-55.092 -238.08)" fill="#dce1e8"/>
        <path id="Path_3492" data-name="Path 3492" d="M108.183,274.36a13.47,13.47,0,1,0-13.471-13.471A13.486,13.486,0,0,0,108.183,274.36Zm0-21.839a8.368,8.368,0,1,1-8.367,8.368A8.377,8.377,0,0,1,108.183,252.521Z" transform="translate(-25.487 -247.419)" fill="#dce1e8"/>
      </g>
      <g id="Group_11185" data-name="Group 11185" transform="translate(371.437 181.37)">
        <path id="Path_3493" data-name="Path 3493" d="M341.628,360.447l0,0a5.387,5.387,0,0,0-6.315-4.268l-12.458,2.409-3.346-17.313a3.933,3.933,0,0,0-.189-.66,5.308,5.308,0,0,0-2.049-2.755c-.04-.03-.1-.065-.157-.1a4.2,4.2,0,0,0-.48-.28l-16.9-8.471a5.389,5.389,0,0,0-6.182.963L278.336,344.84a5.389,5.389,0,0,0,7.534,7.709l12.468-12.183,7.946,3.984-37.669,55.09a5.389,5.389,0,0,0,8.9,6.084l18.507-27.065,10.718,7.265-10.024,14.83a5.389,5.389,0,1,0,8.928,6.037L318.68,387.3a5.4,5.4,0,0,0-1.44-7.48L302.1,369.562,311.377,356l1.918,9.926a5.356,5.356,0,0,0,2.273,3.44,5.417,5.417,0,0,0,4.041.826l17.748-3.432A5.4,5.4,0,0,0,341.628,360.447Zm-4.9,3.052-17.748,3.432a2.073,2.073,0,0,1-1.553-.318,2.047,2.047,0,0,1-.872-1.319l-2.675-13.831a1.66,1.66,0,0,0-3-.622l-12.459,18.224a1.658,1.658,0,0,0,.438,2.312l16.517,11.194a2.071,2.071,0,0,1,.554,2.871l-13.04,19.291a2.12,2.12,0,0,1-2.871.556,2.071,2.071,0,0,1-.556-2.872l10.955-16.206a1.663,1.663,0,0,0-.446-2.3l-13.461-9.124a1.661,1.661,0,0,0-2.3.439l-19.44,28.429a2.117,2.117,0,0,1-2.874.54,2.072,2.072,0,0,1-.54-2.876L310.1,344.653a1.66,1.66,0,0,0-.626-2.422l-10.705-5.366a1.657,1.657,0,0,0-1.9.3l-13.314,13.01a2.123,2.123,0,0,1-2.927-.033,2.073,2.073,0,0,1,.033-2.925l15.218-14.869a2.063,2.063,0,0,1,2.371-.369l16.9,8.474a1.243,1.243,0,0,1,.176.108c.03.019.072.044.112.066a2.05,2.05,0,0,1,.734,1.043c.01.031.021.061.033.093a.8.8,0,0,1,.044.142l3.662,18.943a1.661,1.661,0,0,0,1.945,1.316l14.088-2.726a2.069,2.069,0,0,1,.786,4.062Z" transform="translate(-267.678 -320.25)" fill="#dce1e8"/>
        <path id="Path_3494" data-name="Path 3494" d="M306.942,343.444A9.847,9.847,0,1,0,297.1,333.6,9.858,9.858,0,0,0,306.942,343.444Zm0-16.372a6.526,6.526,0,1,1-6.526,6.524A6.532,6.532,0,0,1,306.942,327.073Z" transform="translate(-245.696 -323.751)" fill="#dce1e8"/>
      </g>
      <path id="Path_3495" data-name="Path 3495" d="M635.226,370.194h-1.237v-.819a7.374,7.374,0,0,0-7.366-7.366h-3.283a2.046,2.046,0,0,0-2.046,2.046v14.759h-3.418V370.2a2.046,2.046,0,0,0-2.046-2.046h-8.137a2.048,2.048,0,0,0-2.048,2.046v8.614H570.2V370.2a2.046,2.046,0,0,0-2.046-2.046h-8.137a2.046,2.046,0,0,0-2.046,2.046v8.614h-3.418V364.054a2.046,2.046,0,0,0-2.046-2.046h-3.285a7.374,7.374,0,0,0-7.365,7.366v.819h-1.239a7.373,7.373,0,0,0-7.365,7.365v15.475a7.374,7.374,0,0,0,7.365,7.366h1.239v.82a7.373,7.373,0,0,0,7.365,7.365h3.285a2.045,2.045,0,0,0,2.046-2.046V391.779h3.418v36.952H553.6a7.441,7.441,0,0,0-7.431,7.433v4.5a2.045,2.045,0,0,0,2.046,2.046h3.877v14.9a2.045,2.045,0,0,0,2.046,2.046h9.958a2.045,2.045,0,0,0,2.046-2.046v-14.9h43.578v14.9a2.045,2.045,0,0,0,2.046,2.046h9.958a2.045,2.045,0,0,0,2.046-2.046v-14.9h3.877a2.045,2.045,0,0,0,2.046-2.046v-4.5a7.442,7.442,0,0,0-7.433-7.433h-4.378V391.779h3.418v14.759a2.045,2.045,0,0,0,2.046,2.046h3.283a7.374,7.374,0,0,0,7.366-7.365v-.82h1.237a7.374,7.374,0,0,0,7.366-7.366V377.558A7.374,7.374,0,0,0,635.226,370.194Zm-25.487,2.053h4.045v6.566h-4.045Zm-47.672,0h4.045v6.566h-4.045Zm-21.444,24.061a3.278,3.278,0,0,1-3.272-3.274V377.558a3.277,3.277,0,0,1,3.272-3.273h1.239v22.022Zm9.842,8.184h-1.239a3.277,3.277,0,0,1-3.272-3.273V369.374a3.278,3.278,0,0,1,3.272-3.274h1.239v38.392Zm11.6-12.713h4.045v36.952h-4.045Zm43.578,0v36.952H570.2V391.779Zm-43.6,63.79h-5.863V442.714h5.863Zm57.628,0h-5.864V442.714h5.864Zm5.925-19.4v2.458H550.256v-2.458a3.343,3.343,0,0,1,3.339-3.339h68.659A3.343,3.343,0,0,1,625.595,436.164Zm-11.811-7.433h-4.045V391.779h4.045Zm2.046-41.044H554.558v-4.78h66.736v4.78ZM629.9,401.219a3.276,3.276,0,0,1-3.273,3.273h-1.237V366.1h1.237a3.277,3.277,0,0,1,3.273,3.274v31.845Zm8.6-8.186a3.277,3.277,0,0,1-3.273,3.274h-1.237V374.286h1.237a3.276,3.276,0,0,1,3.273,3.273Z" transform="translate(302.211 -113.794)" fill="#dce1e8"/>
      <g id="Group_11186" data-name="Group 11186" transform="translate(338.609)">
        <path id="Path_3496" data-name="Path 3496" d="M370.1,263.079c-8.593-25.127-24.992-19.518-38.17-15.01a31.458,31.458,0,0,1-4.317,1.143h-.016l-.024.009c-14.184,2.647-26.619-5.942-32.413-22.887a9.45,9.45,0,0,0-11.986-5.878L250.281,231.7A2.058,2.058,0,0,0,249,234.318l7.307,21.367a51.112,51.112,0,0,1,2.727,14.962,55.211,55.211,0,0,0,2.946,16.167l4.054,11.853c.019.056.049.1.073.159s.026.084.047.124l5.516,10.642a6.635,6.635,0,0,0,6.68,3.5,17.429,17.429,0,1,0,28.5-9.585l2.088-.715a6.544,6.544,0,0,0,4.461-6.383l-.009-.547a2.475,2.475,0,0,1,1.681-2.4l13.066-4.469a2.481,2.481,0,0,1,2.808.884l.3.4a6.531,6.531,0,0,0,7.045,2.443A17.426,17.426,0,1,0,366.82,283l1.153-.393a6.638,6.638,0,0,0,4.359-7.434l-2.158-11.794c-.007-.044-.026-.084-.037-.128S370.117,263.135,370.1,263.079ZM269.263,295.387l-3.388-9.907a50.99,50.99,0,0,1-1.857-7.054,19.886,19.886,0,0,1,23.174,10.828ZM260.2,254.352l-6.641-19.419L284.5,224.352a5.314,5.314,0,0,1,5.85,1.709l-6.047,2.824a2.059,2.059,0,0,0,1.536,3.814,1.87,1.87,0,0,0,.206-.082l6-2.8q.936,2.414,2.039,4.6l-4.883,2.881a2.059,2.059,0,0,0,1.711,3.722,2.028,2.028,0,0,0,.381-.176l4.8-2.829a40.642,40.642,0,0,0,2.724,3.877l-4.216,4.663a2.057,2.057,0,0,0,2.195,3.327,2.017,2.017,0,0,0,.858-.566l3.909-4.323a32.091,32.091,0,0,0,4.962,4.083l-2.551,4.209a2.059,2.059,0,0,0,3.521,2.135L310.1,251.1a28.011,28.011,0,0,0,5.163,1.882l-.652,3.851a2.058,2.058,0,0,0,4.059.688l.648-3.826a30.331,30.331,0,0,0,6.975-.094l.786,4.342a2.057,2.057,0,0,0,2.392,1.66,2.1,2.1,0,0,0,.3-.079,2.058,2.058,0,0,0,1.358-2.313l-.793-4.389c.966-.245,1.939-.524,2.918-.86q2.519-.862,4.843-1.579l1.751,4.316a2.059,2.059,0,0,0,2.572,1.174c.037-.012.073-.026.108-.04a2.059,2.059,0,0,0,1.134-2.682L342.1,249.28c10.579-2.56,18.024-.9,23.4,13.2l-74.411,25.447a24.006,24.006,0,0,0-27.681-13.6q-.2-1.895-.26-3.805A55.224,55.224,0,0,0,260.2,254.352Zm39.5,74.871a13.3,13.3,0,1,1,8.294-16.9A13.319,13.319,0,0,1,299.705,329.223Zm59.979-20.513a13.309,13.309,0,1,1,1.653-24.484,13.306,13.306,0,0,1-1.653,24.484Zm8.6-32.8a2.494,2.494,0,0,1-1.641,2.8l-4.3,1.469a17.329,17.329,0,0,0-22.249,7.609l-2.726.931a2.467,2.467,0,0,1-2.813-.893l-.311-.414a6.576,6.576,0,0,0-7.438-2.315l-13.068,4.468a6.578,6.578,0,0,0-4.464,6.372l.009.561a2.459,2.459,0,0,1-1.676,2.4l-5.231,1.787a17.342,17.342,0,0,0-22.26,7.613l-1.78.61a2.5,2.5,0,0,1-3.01-1.207l-4.419-8.523,95.647-32.71Z" transform="translate(-248.889 -219.947)" fill="#dce1e8"/>
        <path id="Path_3497" data-name="Path 3497" d="M276.115,272.269a5.817,5.817,0,1,0,4.485.3A5.768,5.768,0,0,0,276.115,272.269Zm2.429,7.1a1.694,1.694,0,0,1-2.147-1.054,1.694,1.694,0,0,1,3.2-1.1A1.7,1.7,0,0,1,278.544,279.37Z" transform="translate(-231.482 -181.086)" fill="#dce1e8"/>
        <path id="Path_3498" data-name="Path 3498" d="M310.438,260.531a5.816,5.816,0,1,0,4.483.3A5.77,5.77,0,0,0,310.438,260.531Zm2.429,7.1a1.694,1.694,0,1,1,.217-3.112,1.662,1.662,0,0,1,.839.963A1.7,1.7,0,0,1,312.866,267.632Z" transform="translate(-205.836 -189.857)" fill="#dce1e8"/>
      </g>
      <path id="Path_3499" data-name="Path 3499" d="M815.746,401.085a7.116,7.116,0,0,0-4.166-4.548,8.568,8.568,0,0,0-6.919.07c.023-.664.058-1.326.058-1.992a56.944,56.944,0,0,0-55.828-56.738c-.294-.016-.6-.018-.914-.018A56.83,56.83,0,0,0,722.1,344.1l-.031.018-.035.019a56.751,56.751,0,0,0-17.445,87.045c.028.035.061.066.091.1l.011.01a57.24,57.24,0,0,0,11.24,10.169l.014.007.028.019c.046.028.089.058.135.084a56.624,56.624,0,0,0,27.612,9.6,34.034,34.034,0,0,0,63.744-14.427,2.53,2.53,0,0,0,.068-.578v-5.825c-.124-4.527.164-10.461,1.344-13.529l0-.005a25.26,25.26,0,0,1,2.575-4.2C813.948,409.011,816.773,404.935,815.746,401.085Zm-15.905-6.47c0,1.74-.107,3.467-.276,5.16a31.418,31.418,0,0,0-4.674,4.938v-19.4a8.955,8.955,0,0,0-8.5-9.019,8.742,8.742,0,0,0-4.146.893v-1.424a8.985,8.985,0,0,0-8.507-9.032,8.641,8.641,0,0,0-2.043.182,56.959,56.959,0,0,0-15.162-23.457A52.123,52.123,0,0,1,799.841,394.615ZM722.608,349.4a51.9,51.9,0,0,1-15.54,77.076,51.827,51.827,0,0,1,15.54-77.076Zm-12.294,80.846a56.78,56.78,0,0,0,16.709-83.093,51.24,51.24,0,0,1,20.946-4.412,52.059,52.059,0,0,1,19.358,26.528,8.693,8.693,0,0,0-2.605,6.234v1.691a8.637,8.637,0,0,0-4.153-.9,8.949,8.949,0,0,0-8.492,9.019v4.228a8.763,8.763,0,0,0-12.645,7.843V432.3A51.359,51.359,0,0,1,718.105,437,52.723,52.723,0,0,1,710.314,430.245Zm29.247,7.331a33.935,33.935,0,0,0,1.834,8.471,51.677,51.677,0,0,1-15.854-4.691A55.816,55.816,0,0,0,739.561,437.576Zm67.885-27.751a27.232,27.232,0,0,0-3.122,5.231c-1.808,4.707-1.733,12.987-1.669,15.346v5.308a2.665,2.665,0,0,0-.039.337,29.174,29.174,0,0,1-58.281-.007,2.309,2.309,0,0,0-.025-.246V397.388a3.89,3.89,0,0,1,3.875-3.874,3.886,3.886,0,0,1,3.888,3.847l0,.019-.1,27.294a2.44,2.44,0,0,0,2.431,2.45h.009a2.438,2.438,0,0,0,2.439-2.43l.1-27.257c0-.016.005-.031.005-.049V385.317a4.042,4.042,0,0,1,3.755-4.143,3.88,3.88,0,0,1,4.008,3.86l0,.021v34.84a2.44,2.44,0,0,0,4.88,0v-34.8l0-.04V375.5a3.864,3.864,0,0,1,1.178-2.792,3.787,3.787,0,0,1,2.815-1.1,4.069,4.069,0,0,1,3.772,4.155v9.255l0,.033v36.779a2.44,2.44,0,0,0,4.88,0v-36.75l0-.033a3.852,3.852,0,0,1,1.18-2.79,3.791,3.791,0,0,1,2.822-1.087,4.048,4.048,0,0,1,3.764,4.143v30.8a2.447,2.447,0,0,0,4.894.059c.089-3.654,4.054-9.839,8.488-13.239,2.492-1.92,4.714-2.647,6.093-1.988.891.425,1.412.895,1.546,1.4C811.475,404.01,809.146,407.37,807.446,409.825Z" transform="translate(420.257 -131.838)" fill="#dce1e8"/>
      <g id="Group_11187" data-name="Group 11187" transform="translate(663.162 200.305)">
        <path id="Path_3500" data-name="Path 3500" d="M527.429,337.266a9.139,9.139,0,0,0-12.928,0l-7.993,7.994h0l-7.188,7.188-30.975,30.975,0,0-11.116,11.116,0,0-6.231,6.231-2.935-2.935a7.863,7.863,0,0,0-11.119,11.119l18.8,18.8a7.863,7.863,0,0,0,11.119-11.119h0l-2.935-2.935,6.231-6.229,0,0,11.114-11.114,0,0,35.686-35.685,2.478-2.478,0,0,7.994-7.994a9.141,9.141,0,0,0,0-12.926ZM513,359.556l-25.5,25.5-7.861-7.863,20.768-20.769,7.365-7.365,7.864,7.863Zm-33,33-7.863-7.863,4.966-4.967,7.863,7.862ZM468.888,403.67l-7.863-7.863,8.582-8.584,7.863,7.862L475.556,397Zm-3.309,18.524a4.282,4.282,0,0,1-7.31,3.028l-18.8-18.8a4.282,4.282,0,0,1,6.056-6.056l4.2,4.2,0,.005,7.233,7.234,7.361,7.361A4.251,4.251,0,0,1,465.579,422.194ZM453.527,403.3l4.967-4.966,7.862,7.863-4.967,4.966ZM524.9,347.661l-6.727,6.729-7.863-7.864,6.727-6.727a5.56,5.56,0,1,1,7.863,7.863Z" transform="translate(-434.641 -334.588)" fill="#dce1e8"/>
        <path id="Path_3501" data-name="Path 3501" d="M483.425,366.109a12.462,12.462,0,1,0,12.463,12.461A12.476,12.476,0,0,0,483.425,366.109Zm0,21.344a8.881,8.881,0,1,1,8.883-8.883A8.892,8.892,0,0,1,483.425,387.453Z" transform="translate(-407.5 -311.034)" fill="#dce1e8"/>
      </g>
      <path id="Path_3502" data-name="Path 3502" d="M613.708,293.046,580.984,276l-.023-.016-22.892-11.927-.01-.005-22.892-11.927-.026-.01-32.733-17.053a2.437,2.437,0,0,0-3.29,1.036l-7.739,14.85-22.892,43.941-7.737,14.85a2.439,2.439,0,0,0,1.036,3.29l32.734,17.055.023.014,22.892,11.927.01.005,22.892,11.927.025.01,32.724,17.05a2.441,2.441,0,0,0,3.292-1.036l38.366-73.641A2.441,2.441,0,0,0,613.708,293.046Zm-83.623,19.417a12.15,12.15,0,0,1,11-21.107Zm15.334-18.849a12.149,12.149,0,0,1-11,21.11Zm8.221-26.361-10.279,19.73a17.005,17.005,0,0,0-15.554,29.853l-10.279,19.73-18.566-9.673,36.112-69.313Zm-31.775,71.572L532.144,319.1A17,17,0,0,0,547.7,289.242l10.279-19.73,18.564,9.673L540.431,348.5ZM494.519,255.48A22.334,22.334,0,0,1,474,294.861ZM471.744,299.2a27.2,27.2,0,0,0,25.034-48.049l5.539-10.632,28.429,14.811-36.11,69.313-28.431-14.811Zm73.014,51.557,36.112-69.315,28.42,14.808-5.539,10.63a27.2,27.2,0,0,0-25.034,48.051l-5.539,10.632Zm56.722-39.547-20.516,39.381a22.334,22.334,0,0,1,20.516-39.381Z" transform="translate(247.823 -208.861)" fill="#dce1e8"/>
      <path id="Path_3503" data-name="Path 3503" d="M240.552,310.537h0l-.087-.054a55.54,55.54,0,0,0-41.036-6.149l-.316.075-.014,0a55.859,55.859,0,0,0,25.695,108.722l.316-.073a55.853,55.853,0,0,0,15.444-102.524Zm-4.258,2.631a55.21,55.21,0,0,0-6.805,39.217l-15.912,3.758L202.253,308.2A51.139,51.139,0,0,1,236.294,313.168Zm-26.972,43.98-15.281,3.61a55.241,55.241,0,0,0-23.623-32.03A51.121,51.121,0,0,1,198,309.228Zm1,4.253,11.319,47.92a51.142,51.142,0,0,1-33.395-5.095,55.244,55.244,0,0,0,6.8-39.215Zm4.255-1,15.912-3.758a55.206,55.206,0,0,0,23.635,32.027,51.142,51.142,0,0,1-28.223,19.672Zm25.485-45.021a50.932,50.932,0,0,1,21.755,29.373l-28.078,6.631A50.881,50.881,0,0,1,240.066,315.375ZM168.031,332.39a50.912,50.912,0,0,1,21.755,29.373l-28.076,6.631A50.839,50.839,0,0,1,168.031,332.39Zm-5.327,40.26,28.089-6.634a50.931,50.931,0,0,1-6.316,36.005A50.849,50.849,0,0,1,162.7,372.649ZM256.515,385a50.879,50.879,0,0,1-21.767-29.371L262.835,349A50.925,50.925,0,0,1,256.515,385Z" transform="translate(20.593 -158.019)" fill="#dce1e8"/>
      <g id="Group_11188" data-name="Group 11188" transform="translate(527.268 88.483)">
        <path id="Path_3504" data-name="Path 3504" d="M405.262,330.068c.037.009.075.014.112.023l.014,0a23.385,23.385,0,0,0,5.465.633,31.431,31.431,0,0,0,15.6-4.459c.038-.021.073-.047.11-.068l.011-.007a38.867,38.867,0,0,0,14.768-15.6c.031-.061.056-.124.086-.185l0-.005c3.22-6.425,4.206-13.19,2.78-19.09l-.014-.072c-.005-.026-.009-.054-.016-.082a19.1,19.1,0,0,0-5.051-9.1,18.768,18.768,0,0,0-7.686-4.628l-.063-.023c-.049-.016-.1-.04-.147-.056-.075-.023-.154-.035-.229-.056l-.044-.012c-6.068-1.807-13.382-.909-20.17,2.483h0c-.063.031-.128.056-.19.087A38.868,38.868,0,0,0,395,294.617l-.01.017c-.021.035-.045.068-.065.1-4.265,7.333-5.535,15.376-3.533,22.109l.012.049c.019.068.03.142.051.208s.038.1.056.15c.011.028.019.056.03.084a18.756,18.756,0,0,0,4.625,7.677A19.1,19.1,0,0,0,405.262,330.068Zm-7.579-30,4.49,4.492-6.813,6.812A24.548,24.548,0,0,1,397.682,300.064Zm-1.069,16.952,9.011-9.01,8.233,8.235-8.693,8.692a14.066,14.066,0,0,1-5.551-3.367A13.822,13.822,0,0,1,396.613,317.016Zm12.46-12.461L419.93,293.7l8.235,8.235L417.307,312.79Zm8.235,15.135,3.812,3.814a25.442,25.442,0,0,1-9.951,2.324Zm13.55-2.939a33.807,33.807,0,0,1-5.28,4.31l-4.819-4.821,10.855-10.857,4.52,4.52A33.5,33.5,0,0,1,430.857,316.751Zm9.091-19.7a24.4,24.4,0,0,1-1.593,8.174l-3.29-3.29Zm-4.274-11.544a14.036,14.036,0,0,1,3.367,5.549l-7.428,7.427-8.235-8.235,7.746-7.744a13.757,13.757,0,0,1,4.548,3Zm-11.247-4.275c.349,0,.692.017,1.034.035L419.93,286.8l-3.97-3.97A24.674,24.674,0,0,1,424.427,281.231Zm-19.987,9.1a33.5,33.5,0,0,1,6.846-5.277l5.193,5.194-10.855,10.856-5.5-5.495A33.788,33.788,0,0,1,404.441,290.332Z" transform="translate(-331.759 -266.27)" fill="#dce1e8"/>
        <path id="Path_3505" data-name="Path 3505" d="M466.6,331.692c15.805-15.8,17.967-39.358,4.822-52.5s-36.7-10.978-52.5,4.824c-13.49,13.489-17.242,33.255-9.189,46.885l-27.46,27.458a8.284,8.284,0,0,0-6.372,2.423l-16.586,16.585a8.337,8.337,0,0,0-.012,11.79l2.156,2.154a8.346,8.346,0,0,0,11.79-.012l16.585-16.586a8.3,8.3,0,0,0,2.422-6.369l27.461-27.46C433.343,348.934,453.11,345.182,466.6,331.692Zm-80.216,39.57L369.8,387.848a3.461,3.461,0,0,1-4.889.012l-2.156-2.156a3.42,3.42,0,0,1-1.007-2.436,3.457,3.457,0,0,1,1.019-2.455l16.587-16.585a3.455,3.455,0,0,1,2.455-1.019,3.564,3.564,0,0,1,.8.091,3.427,3.427,0,0,1,1.637.916l2.154,2.154a3.4,3.4,0,0,1,.914,1.635A3.475,3.475,0,0,1,386.383,371.261Zm31.268-35.217-27.374,27.374c-.143-.168-.276-.341-.433-.5l-2.154-2.153c-.156-.157-.328-.29-.5-.433l27.374-27.374a2.44,2.44,0,0,0,.28-3.117c-8.14-11.731-4.906-29.951,7.524-42.381,13.9-13.9,34.356-16.066,45.6-4.822s9.079,31.7-4.822,45.6c-12.428,12.426-30.648,15.666-42.383,7.524A2.438,2.438,0,0,0,417.651,336.044Z" transform="translate(-356.865 -270.589)" fill="#dce1e8"/>
      </g>
      <path id="Path_3506" data-name="Path 3506" d="M115.35,412.407a5.765,5.765,0,0,0-2.008-4.37,5.662,5.662,0,0,0-5.362-9.739l-17.893,5.355H86.565a8.754,8.754,0,1,0,0,17.507h3.522l17.874,5.35a6.076,6.076,0,0,0,1.73.255,5.6,5.6,0,0,0,5.2-3.363,5.774,5.774,0,0,0-1.552-6.626A5.765,5.765,0,0,0,115.35,412.407Zm-15.678,2.165-7.967-.638V410.88l7.967-.638,9.949-.8a2.96,2.96,0,0,1,0,5.92ZM108.789,401a2.879,2.879,0,0,1,3.384,1.254,2.929,2.929,0,0,1,.356,1.41,2.963,2.963,0,0,1-2.96,2.96c-.038,0-.075,0-.114.005l-17.752,1.42v-1.938ZM80.631,412.407a5.939,5.939,0,0,1,5.934-5.932h2.32V418.34h-2.32A5.94,5.94,0,0,1,80.631,412.407Zm31.9,8.741a2.944,2.944,0,0,1-.232,1.153,2.912,2.912,0,0,1-3.529,1.506L91.705,418.7v-1.938l17.752,1.42c.038,0,.075.005.114.005A2.963,2.963,0,0,1,112.53,421.148Z" transform="translate(-38.116 -86.864)" fill="#dce1e8"/>
    </g>
    <g id="Group_11196" data-name="Group 11196" transform="translate(-4.3 242.608)" opacity="0.3">
      <g id="Group_11190" data-name="Group 11190" transform="translate(172.017 109.779)">
        <path id="Path_3507" data-name="Path 3507" d="M114.052,376.45h1.134a6.2,6.2,0,0,0,5.724-3.79l13.073-30.812c.007-.021.009-.04.017-.061s.023-.035.031-.054l4.946-11.663a2.545,2.545,0,0,1,3.552-1.244,21.3,21.3,0,0,0,25.031-3.669l3.238-3.238a6.043,6.043,0,0,0,1.644-5.995,15.693,15.693,0,0,1,3.893-15.826,2.543,2.543,0,0,1,3.582.014l16.076,16.078,0,0,12.818,12.818,3.664,3.664a8.732,8.732,0,0,1,0,12.353l-63.863,63.865c-.474.473-.97.915-1.478,1.34h59.879a2.544,2.544,0,0,1,0,5.088H108.075a13.929,13.929,0,0,1-13.911-13.9v-.005l-.012-5.055v-.007A19.955,19.955,0,0,1,114.052,376.45Zm64.27-70.739a10.761,10.761,0,0,0-1.031,8.67,11.03,11.03,0,0,1-2.9,11.135l-3.238,3.238a26.455,26.455,0,0,1-28.527,5.738l-2.946,6.94,4.745,2.009a2.544,2.544,0,1,1-1.985,4.684l-4.747-2.009-3.037,7.157,4.752,2.013a2.544,2.544,0,1,1-1.985,4.684l-4.754-2.013-3.037,7.157,4.759,2.016a2.544,2.544,0,0,1-1.985,4.684l-4.761-2.016-2.057,4.849a11.289,11.289,0,0,1-10.408,6.891h-1.13a14.858,14.858,0,0,0-14.817,14.811l.005,2.512h29.135a16.757,16.757,0,0,0,11.925-4.938l44.967-44.969-.26-.26a17.777,17.777,0,0,1,0-25.113l5.591-5.591ZM194.2,321.587l-5.593,5.593a12.685,12.685,0,0,0,0,17.918l.262.26,14.551-14.551Zm-86.125,88.644H133.1a16.745,16.745,0,0,0,11.921-4.938l63.865-63.865a3.644,3.644,0,0,0,0-5.158l-1.866-1.866L143.9,397.52a21.8,21.8,0,0,1-15.521,6.43H99.623A8.842,8.842,0,0,0,108.075,410.231Z" transform="translate(-94.151 -299.367)" fill="#dce1e8"/>
        <path id="Path_3508" data-name="Path 3508" d="M177.665,308.373H160.091a2.544,2.544,0,1,1,0-5.088h17.574a2.544,2.544,0,1,1,0,5.088Z" transform="translate(-46.779 -296.439)" fill="#dce1e8"/>
        <path id="Path_3509" data-name="Path 3509" d="M143.366,350.893a2.543,2.543,0,0,1,2.544-2.542h29.612a2.543,2.543,0,0,1,0,5.086H145.91A2.544,2.544,0,0,1,143.366,350.893Z" transform="translate(-57.376 -262.764)" fill="#dce1e8"/>
        <path id="Path_3510" data-name="Path 3510" d="M160.152,332.94A2.544,2.544,0,0,1,162.7,330.4h15.491a2.543,2.543,0,1,1,0,5.086H162.7A2.544,2.544,0,0,1,160.152,332.94Z" transform="translate(-44.833 -276.181)" fill="#dce1e8"/>
      </g>
      <g id="Group_11191" data-name="Group 11191" transform="translate(736.216 131.344)">
        <path id="Path_3511" data-name="Path 3511" d="M420.514,311.709H598.069a3.452,3.452,0,0,1,3.1,4.973l-12.638,25.765a3.458,3.458,0,0,1-2.511,1.882l-62.046,10.74a9.87,9.87,0,0,1,5.383,7.634l3.867,26.97,19.432,11.306a10.371,10.371,0,0,1,3.863,13.978l-24.606,44.355a10.366,10.366,0,0,1-12.25,4.819l-10.807-3.51-5.544,30.285a10.355,10.355,0,0,1-10.181,8.492,10.142,10.142,0,0,1-1.877-.178,10.35,10.35,0,0,1-8.306-12.046l6.044-33-6.348-2.06-22.791,16.758a10.352,10.352,0,0,1-16.385-9.881,10.271,10.271,0,0,1,4.1-6.781l27.086-19.924a10.335,10.335,0,0,1,9.327-1.51l33.97,11.018,15.543-28.013-15.019-8.724a10.306,10.306,0,0,1-5.025-7.476L508.9,365.961l-32.586,26.5L463.5,425.4a3.452,3.452,0,0,1-.608,1.008l-27.7,32.008-11.4,35.359a3.453,3.453,0,0,1-3.285,2.394,3.507,3.507,0,0,1-.536-.042,3.452,3.452,0,0,1-2.918-3.411V315.162A3.453,3.453,0,0,1,420.514,311.709Zm69.227,176.714a3.407,3.407,0,0,0,.55,2.572,3.444,3.444,0,0,0,2.224,1.436l.021,0a3.388,3.388,0,0,0,3.985-2.773l5.71-31.192-6.613-2.147Zm25.945-123.75,4.6,31.931a3.445,3.445,0,0,0,1.67,2.488l17.934,10.415a3.455,3.455,0,0,1,1.284,4.662l-18.564,33.458a3.451,3.451,0,0,1-4.085,1.609l-36.682-11.9a3.447,3.447,0,0,0-3.1.507l-27.087,19.925a3.443,3.443,0,0,0-.727,4.817l.009.012a3.5,3.5,0,0,0,4.814.715L479.979,445.5a3.453,3.453,0,0,1,3.108-.5l10.817,3.512c.031.01.065.01.1.021l13.237,4.3c.028.009.052.023.08.033l14.485,4.7a3.452,3.452,0,0,0,4.076-1.611l24.6-44.353a3.443,3.443,0,0,0-1.286-4.648L528.307,394.8a3.453,3.453,0,0,1-1.683-2.495l-4.1-28.616a3.472,3.472,0,0,0-1.37-2.3,3.455,3.455,0,0,0-5.469,3.283ZM423.966,470.747l4.871-15.117a3.451,3.451,0,0,1,.676-1.2l27.767-32.088,12.926-33.232a3.461,3.461,0,0,1,1.038-1.427l46.931-38.17a3.465,3.465,0,0,1,1.59-.725l63.342-10.962,9.423-19.211H423.966Z" transform="translate(-417.061 -311.709)" fill="#dce1e8"/>
        <path id="Path_3512" data-name="Path 3512" d="M489.324,358.11a18.123,18.123,0,1,1,18.122,18.124A18.143,18.143,0,0,1,489.324,358.11Zm18.122,11.219a11.218,11.218,0,1,0-11.217-11.219A11.231,11.231,0,0,0,507.446,369.329Z" transform="translate(-363.064 -290.578)" fill="#dce1e8"/>
      </g>
      <g id="Group_11192" data-name="Group 11192" transform="translate(665.575 271.185)">
        <path id="Path_3513" data-name="Path 3513" d="M376.806,457.293l0,0a9.622,9.622,0,0,1,11.278-7.623l22.254,4.3,5.977-30.928a7.219,7.219,0,0,1,.337-1.178,9.49,9.49,0,0,1,3.66-4.925c.073-.051.18-.115.281-.173a7.415,7.415,0,0,1,.86-.5l30.184-15.131a9.62,9.62,0,0,1,11.042,1.721l27.182,26.558a9.627,9.627,0,0,1-13.457,13.77l-22.272-21.763-14.2,7.116,67.289,98.409a9.627,9.627,0,0,1-15.895,10.868L458.276,489.47,439.13,502.449l17.907,26.492a9.626,9.626,0,1,1-15.949,10.784L417.8,505.267a9.64,9.64,0,0,1,2.574-13.361l27.04-18.328-16.566-24.229-3.428,17.731a9.572,9.572,0,0,1-4.061,6.147,9.688,9.688,0,0,1-7.22,1.476l-31.7-6.131A9.642,9.642,0,0,1,376.806,457.293Zm8.752,5.455,31.7,6.131a3.723,3.723,0,0,0,2.775-.568,3.675,3.675,0,0,0,1.559-2.359l4.777-24.706a2.967,2.967,0,0,1,5.36-1.113l22.258,32.554a2.963,2.963,0,0,1-.784,4.129l-29.506,20a3.7,3.7,0,0,0-.987,5.128L446,536.4a3.788,3.788,0,0,0,5.13.992,3.7,3.7,0,0,0,.989-5.132l-19.567-28.946a2.967,2.967,0,0,1,.795-4.116l24.044-16.3a2.966,2.966,0,0,1,4.111.781l34.726,50.785a3.781,3.781,0,0,0,5.135.963,3.7,3.7,0,0,0,.964-5.135L433.124,429.084a2.967,2.967,0,0,1,1.118-4.326l19.123-9.585a2.964,2.964,0,0,1,3.4.529l23.783,23.242a3.786,3.786,0,0,0,5.226-.061,3.7,3.7,0,0,0-.059-5.224L458.536,407.1a3.686,3.686,0,0,0-4.237-.659l-30.2,15.136a2.336,2.336,0,0,0-.313.194c-.052.035-.128.079-.2.121a3.658,3.658,0,0,0-1.312,1.861c-.019.056-.037.112-.059.166a1.458,1.458,0,0,0-.079.255L415.6,458.01a2.965,2.965,0,0,1-3.474,2.35l-25.167-4.868a3.693,3.693,0,0,0-4.328,2.927A3.7,3.7,0,0,0,385.558,462.748Z" transform="translate(-376.631 -385.491)" fill="#dce1e8"/>
        <path id="Path_3514" data-name="Path 3514" d="M397.241,426.924a17.589,17.589,0,1,1,17.589-17.589A17.609,17.609,0,0,1,397.241,426.924Zm0-29.247A11.658,11.658,0,1,0,408.9,409.334,11.671,11.671,0,0,0,397.241,397.677Z" transform="translate(-374.373 -391.745)" fill="#dce1e8"/>
      </g>
      <path id="Path_3515" data-name="Path 3515" d="M5.268,346.613H6.877v-1.064a9.579,9.579,0,0,1,9.568-9.568h4.267a2.658,2.658,0,0,1,2.658,2.658v19.172h4.438V346.622a2.658,2.658,0,0,1,2.659-2.658H41.037a2.658,2.658,0,0,1,2.658,2.658v11.189h46.04V346.622a2.658,2.658,0,0,1,2.659-2.658h10.571a2.658,2.658,0,0,1,2.658,2.658v11.189h4.438V338.639a2.658,2.658,0,0,1,2.659-2.658h4.265a9.58,9.58,0,0,1,9.57,9.568v1.064h1.607a9.579,9.579,0,0,1,9.568,9.568v20.106a9.579,9.579,0,0,1-9.568,9.568h-1.607v1.064a9.58,9.58,0,0,1-9.57,9.568h-4.265a2.658,2.658,0,0,1-2.659-2.658V374.654h-4.438v48h5.689a9.665,9.665,0,0,1,9.653,9.655v5.852a2.659,2.659,0,0,1-2.658,2.659H113.27V460.18a2.656,2.656,0,0,1-2.658,2.658H97.679a2.658,2.658,0,0,1-2.659-2.658V440.824H38.409V460.18a2.658,2.658,0,0,1-2.658,2.658H22.817a2.658,2.658,0,0,1-2.658-2.658V440.824H15.122a2.659,2.659,0,0,1-2.658-2.659v-5.852a9.665,9.665,0,0,1,9.653-9.655h5.689v-48H23.369v19.174a2.658,2.658,0,0,1-2.658,2.658H16.445a9.579,9.579,0,0,1-9.568-9.568v-1.064H5.268A9.579,9.579,0,0,1-4.3,376.286V356.181A9.579,9.579,0,0,1,5.268,346.613Zm33.11,2.668H33.124v8.53h5.254Zm61.927,0H95.051v8.53h5.254Zm27.856,31.256a4.257,4.257,0,0,0,4.251-4.251V356.181a4.257,4.257,0,0,0-4.251-4.251h-1.607v28.608Zm-12.785,10.632h1.607a4.256,4.256,0,0,0,4.253-4.251V345.549a4.256,4.256,0,0,0-4.253-4.251h-1.607v49.871Zm-15.072-16.515H95.051v48h5.254Zm-56.61,0v48h46.04v-48Zm56.642,82.866h7.618v-16.7h-7.618Zm-74.86,0h7.616v-16.7H25.476Zm-7.695-25.207v3.194h97.866v-3.194a4.342,4.342,0,0,0-4.337-4.338H22.118A4.343,4.343,0,0,0,17.782,432.313Zm15.342-9.655h5.254v-48H33.124Zm-2.658-53.319H110.06v-6.211H23.369v6.211ZM12.194,386.918a4.255,4.255,0,0,0,4.251,4.251h1.607V341.3H16.445a4.255,4.255,0,0,0-4.251,4.251v41.369ZM1.017,376.286a4.257,4.257,0,0,0,4.251,4.251H6.877V351.93H5.268a4.257,4.257,0,0,0-4.251,4.251Z" transform="translate(4.3 -162.228)" fill="#dce1e8"/>
      <g id="Group_11193" data-name="Group 11193" transform="translate(554.733 51.785)">
        <path id="Path_3516" data-name="Path 3516" d="M315.014,295.244c5.792-16.934,16.845-13.153,25.726-10.116a20.855,20.855,0,0,0,2.909.771h.01l.017.005c9.559,1.786,17.939-4,21.844-15.425a6.369,6.369,0,0,1,8.079-3.961l22.165,7.581a1.389,1.389,0,0,1,.865,1.761l-4.925,14.4a34.424,34.424,0,0,0-1.838,10.085,37.211,37.211,0,0,1-1.985,10.894l-2.733,7.99c-.012.037-.033.07-.049.107s-.019.056-.033.084l-3.716,7.172a4.471,4.471,0,0,1-4.5,2.359,11.746,11.746,0,1,1-19.209-6.46l-1.408-.482a4.412,4.412,0,0,1-3.005-4.3l.005-.369a1.671,1.671,0,0,0-1.132-1.62l-8.806-3.012a1.675,1.675,0,0,0-1.894.6l-.2.271a4.4,4.4,0,0,1-4.747,1.646,11.745,11.745,0,1,1-19.227-6.55l-.776-.266a4.476,4.476,0,0,1-2.939-5.011l1.454-7.948c.005-.03.019-.058.026-.086S315,295.282,315.014,295.244Zm67.959,21.774,2.284-6.676a34.252,34.252,0,0,0,1.253-4.754,13.4,13.4,0,0,0-15.618,7.3Zm6.107-27.655,4.476-13.089-20.853-7.13a3.581,3.581,0,0,0-3.944,1.151l4.075,1.9a1.388,1.388,0,0,1-1.034,2.572c-.047-.017-.093-.035-.14-.056l-4.041-1.889c-.419,1.083-.881,2.114-1.373,3.1l3.29,1.941a1.388,1.388,0,0,1-1.153,2.509,1.544,1.544,0,0,1-.257-.119l-3.232-1.906a27.767,27.767,0,0,1-1.835,2.612L365.9,284.1a1.387,1.387,0,1,1-2.058,1.861l-2.633-2.913a21.8,21.8,0,0,1-3.344,2.752l1.719,2.836a1.388,1.388,0,1,1-2.375,1.438l-1.759-2.906a19,19,0,0,1-3.481,1.268l.44,2.6a1.387,1.387,0,1,1-2.736.463l-.437-2.579a20.411,20.411,0,0,1-4.7-.063L344,291.784a1.387,1.387,0,0,1-1.613,1.118,1.491,1.491,0,0,1-.2-.052,1.389,1.389,0,0,1-.914-1.56l.535-2.956c-.652-.166-1.307-.355-1.967-.58-1.132-.388-2.217-.746-3.264-1.066L335.4,289.6a1.387,1.387,0,0,1-1.733.792l-.073-.028a1.387,1.387,0,0,1-.764-1.807l1.059-2.609c-7.131-1.726-12.149-.608-15.776,8.892l50.153,17.151a16.178,16.178,0,0,1,18.655-9.164q.136-1.276.176-2.565A37.221,37.221,0,0,1,389.079,289.363Zm-26.623,50.46a8.967,8.967,0,1,0-5.591-11.387A8.978,8.978,0,0,0,362.457,339.823ZM322.033,326a8.979,8.979,0,0,0,11.392-5.581A8.97,8.97,0,1,0,322.033,326Zm-5.8-22.1a1.682,1.682,0,0,0,1.106,1.884l2.9.991a11.677,11.677,0,0,1,14.995,5.128l1.836.627a1.659,1.659,0,0,0,1.9-.6l.21-.278a4.436,4.436,0,0,1,5.015-1.56L353,313.1a4.432,4.432,0,0,1,3.009,4.293l-.007.379a1.658,1.658,0,0,0,1.13,1.616l3.526,1.206a11.688,11.688,0,0,1,15,5.132l1.2.411a1.682,1.682,0,0,0,2.029-.814l2.977-5.743L317.4,297.529Z" transform="translate(-313.192 -266.175)" fill="#dce1e8"/>
        <path id="Path_3517" data-name="Path 3517" d="M345.991,301.438a3.918,3.918,0,1,1-3.023.2A3.887,3.887,0,0,1,345.991,301.438Zm-1.637,4.786a1.142,1.142,0,1,0-.147-2.1,1.117,1.117,0,0,0-.564.65A1.142,1.142,0,0,0,344.353,306.224Z" transform="translate(-292.559 -239.984)" fill="#dce1e8"/>
        <path id="Path_3518" data-name="Path 3518" d="M322.858,293.527a3.918,3.918,0,1,1-3.023.206A3.889,3.889,0,0,1,322.858,293.527Zm-1.635,4.786a1.141,1.141,0,1,0-.147-2.1,1.127,1.127,0,0,0-.566.648A1.142,1.142,0,0,0,321.222,298.313Z" transform="translate(-309.843 -245.895)" fill="#dce1e8"/>
      </g>
      <path id="Path_3519" data-name="Path 3519" d="M209.338,478.909c.928-3.484,3.432-6.217,7.441-8.123,3.624-1.719,7.864-1.634,12.36.122-.042-1.185-.1-2.366-.1-3.556,0-55.111,44.815-100.581,99.727-101.352.524-.03,1.076-.031,1.632-.031a101.554,101.554,0,0,1,46.22,11.139l.052.03.065.037a101.378,101.378,0,0,1,31.162,155.49c-.051.061-.11.119-.163.18l-.019.021a102.193,102.193,0,0,1-20.079,18.162l-.025.014-.051.033c-.079.052-.159.1-.241.15A101.124,101.124,0,0,1,338,568.37,60.8,60.8,0,0,1,224.127,542.6a4.4,4.4,0,0,1-.122-1.034v-10.4c.22-8.09-.3-18.687-2.4-24.168l0-.011c-.732-1.92-2.7-4.756-4.6-7.5C212.55,493.066,207.5,485.787,209.338,478.909Zm28.412-11.556a92.166,92.166,0,0,0,.493,9.215,56.135,56.135,0,0,1,8.348,8.824v-34.65c0-8.649,6.816-15.875,15.183-16.111a15.593,15.593,0,0,1,7.4,1.6v-2.544c0-8.626,6.807-15.865,15.2-16.134a15.366,15.366,0,0,1,3.648.327,101.68,101.68,0,0,1,27.086-41.9C271.36,383.328,237.75,421.722,237.75,467.352Zm137.963-80.771a92.714,92.714,0,0,0,27.758,137.68,92.582,92.582,0,0,0-27.758-137.68ZM397.673,531a101.429,101.429,0,0,1-29.848-148.433,91.536,91.536,0,0,0-37.415-7.88,93.01,93.01,0,0,0-34.58,47.387,15.538,15.538,0,0,1,4.653,11.137v3.023a15.41,15.41,0,0,1,7.422-1.6c8.362.236,15.166,7.462,15.166,16.111v7.552a15.655,15.655,0,0,1,22.588,14.013v62.359a91.687,91.687,0,0,0,38.1,8.4A94.1,94.1,0,0,0,397.673,531Zm-52.244,13.094a60.546,60.546,0,0,1-3.278,15.133,92.336,92.336,0,0,0,28.321-8.38A99.667,99.667,0,0,1,345.429,544.093ZM224.165,494.52c2.3,3.313,4.464,6.44,5.575,9.346,3.229,8.408,3.1,23.2,2.979,27.414v9.482a4.484,4.484,0,0,1,.07.6,52.113,52.113,0,0,0,104.107-.012c.009-.149.025-.3.045-.44V472.306a6.95,6.95,0,0,0-6.924-6.921,6.939,6.939,0,0,0-6.942,6.874l0,.035.183,48.755a4.36,4.36,0,0,1-4.344,4.375H318.9a4.358,4.358,0,0,1-4.358-4.34l-.183-48.69c0-.03-.009-.058-.009-.087V450.741a7.222,7.222,0,0,0-6.708-7.4,6.933,6.933,0,0,0-7.16,6.895l0,.04v62.233a4.358,4.358,0,1,1-8.715,0V450.339c0-.024-.007-.047-.007-.072V433.21a6.906,6.906,0,0,0-2.1-4.987,6.757,6.757,0,0,0-5.029-1.964,7.271,7.271,0,0,0-6.739,7.422v16.532c0,.021.005.04.005.061v65.7a4.358,4.358,0,0,1-8.715,0V450.327c0-.021-.007-.04-.007-.059a6.884,6.884,0,0,0-2.105-4.983,6.77,6.77,0,0,0-5.042-1.945,7.234,7.234,0,0,0-6.723,7.4v55.012a4.371,4.371,0,0,1-8.74.108c-.163-6.526-7.244-17.577-15.163-23.651-4.454-3.428-8.423-4.726-10.885-3.55-1.592.757-2.521,1.6-2.761,2.5C216.965,484.135,221.125,490.138,224.165,494.52Z" transform="translate(163.649 -139.82)" fill="#dce1e8"/>
      <g id="Group_11194" data-name="Group 11194" transform="translate(1113.746 221.452)">
        <path id="Path_3520" data-name="Path 3520" d="M636.513,366.66a11.53,11.53,0,0,1,16.31,0l10.085,10.085h0l9.07,9.07,39.08,39.082,0,0,14.025,14.025,0,0,7.861,7.861,3.7-3.7a9.92,9.92,0,1,1,14.029,14.029L726.966,480.83a9.92,9.92,0,0,1-14.029-14.03h0l3.7-3.7-7.861-7.861,0,0-14.025-14.023,0,0-45.023-45.021-3.127-3.129h0l-10.085-10.085a11.53,11.53,0,0,1,0-16.31Zm18.2,28.124,32.174,32.172,9.919-9.921-26.2-26.2-9.294-9.294-9.921,9.921Zm41.633,41.633,9.921-9.921L700,420.23l-9.921,9.919Zm14.025,14.025,9.919-9.921-10.829-10.829-9.919,9.919,2.417,2.416Zm4.176,23.373a5.4,5.4,0,0,0,9.222,3.819l23.717-23.715a5.4,5.4,0,0,0-7.641-7.641l-5.3,5.3,0,.005-9.128,9.126-9.288,9.288A5.373,5.373,0,0,0,714.55,473.815Zm15.2-23.832-6.266-6.266-9.919,9.919,6.266,6.266Zm-90.046-70.207,8.488,8.49,9.921-9.921-8.488-8.49a7.015,7.015,0,1,0-9.921,9.921Z" transform="translate(-633.134 -363.281)" fill="#dce1e8"/>
        <path id="Path_3521" data-name="Path 3521" d="M653.969,403.052a15.723,15.723,0,1,1-15.725,15.721A15.738,15.738,0,0,1,653.969,403.052Zm0,26.927a11.2,11.2,0,1,0-11.207-11.205A11.216,11.216,0,0,0,653.969,429.979Z" transform="translate(-629.316 -333.563)" fill="#dce1e8"/>
      </g>
      <path id="Path_3522" data-name="Path 3522" d="M670.559,295.856,703.875,278.5l.023-.014,23.308-12.143.01-.005,23.308-12.143.024-.011,33.327-17.362a2.483,2.483,0,0,1,3.351,1.055l7.877,15.119,23.308,44.736,7.877,15.121a2.482,2.482,0,0,1-1.056,3.349l-33.327,17.364-.023.014L768.575,345.72l-.009.005-23.308,12.143-.026.01-33.316,17.359a2.486,2.486,0,0,1-3.351-1.055L669.5,299.207A2.483,2.483,0,0,1,670.559,295.856ZM755.7,315.624a12.37,12.37,0,0,0-11.2-21.489Zm-15.612-19.19a12.37,12.37,0,0,0,11.2,21.493Zm-8.369-26.839,10.466,20.088a17.313,17.313,0,0,1,15.835,30.395l10.466,20.086,18.9-9.847-36.767-70.569Zm32.35,72.87L753.6,322.379a17.313,17.313,0,0,1-15.837-30.4L727.3,271.9l-18.9,9.847,36.765,70.569Zm27.842-84.856A22.739,22.739,0,0,0,812.8,297.7ZM815.1,302.116A27.689,27.689,0,0,1,789.608,253.2l-5.64-10.826-28.945,15.08,36.765,70.571,28.946-15.08Zm-74.336,52.492-36.767-70.569-28.936,15.075,5.64,10.822a27.689,27.689,0,0,1,25.487,48.922l5.64,10.824Zm-57.751-40.262L703.9,354.441a22.739,22.739,0,0,0-20.888-40.094Z" transform="translate(507.578 -236.537)" fill="#dce1e8"/>
      <path id="Path_3523" data-name="Path 3523" d="M797.232,401h0v0c.033-.019.066-.042.1-.061a62.545,62.545,0,0,1,46.206-6.922l.355.084.014,0a62.9,62.9,0,0,1-28.931,122.418l-.355-.084A62.887,62.887,0,0,1,797.232,401Zm4.795,2.962a62.164,62.164,0,0,1,7.663,44.156l17.916,4.232,12.75-53.977A57.575,57.575,0,0,0,802.027,403.96Zm30.37,49.518,17.2,4.064a62.209,62.209,0,0,1,26.6-36.065,57.567,57.567,0,0,0-31.061-21.954Zm-1.132,4.791-12.744,53.955a57.57,57.57,0,0,0,37.6-5.738,62.2,62.2,0,0,1-7.649-44.153Zm-4.789-1.132L808.558,452.9a62.161,62.161,0,0,1-26.61,36.061,57.57,57.57,0,0,0,31.779,22.148Zm-28.695-50.692a57.346,57.346,0,0,0-24.5,33.072l31.614,7.468A57.292,57.292,0,0,0,797.781,406.444ZM878.888,425.6a57.331,57.331,0,0,0-24.494,33.072l31.613,7.468A57.24,57.24,0,0,0,878.888,425.6Zm6,45.33-31.625-7.469A57.336,57.336,0,0,0,860.372,504,57.248,57.248,0,0,0,884.886,470.933ZM779.26,484.844a57.294,57.294,0,0,0,24.508-33.072L772.144,444.3A57.341,57.341,0,0,0,779.26,484.844Z" transform="translate(580.009 -120.137)" fill="#dce1e8"/>
      <g id="Group_11195" data-name="Group 11195" transform="translate(1416.677 193.852)">
        <path id="Path_3524" data-name="Path 3524" d="M850.057,404.6c-.035.009-.072.014-.107.023l-.014,0a22.5,22.5,0,0,1-5.249.606,30.165,30.165,0,0,1-14.977-4.281c-.037-.021-.072-.045-.107-.066l-.01-.007A37.309,37.309,0,0,1,815.411,385.9c-.03-.058-.051-.117-.081-.175l0-.005c-3.093-6.171-4.038-12.667-2.67-18.334l.012-.068c.007-.026.008-.052.016-.079a18.34,18.34,0,0,1,4.852-8.741,18.016,18.016,0,0,1,7.38-4.445l.059-.021c.049-.016.093-.038.142-.052.071-.023.148-.033.22-.056l.042-.01c5.827-1.735,12.851-.872,19.37,2.385h0c.059.03.122.052.182.082a37.343,37.343,0,0,1,14.979,14.181l.01.016c.019.035.042.066.063.1,4.094,7.04,5.313,14.764,3.392,21.229l-.012.049c-.019.065-.028.135-.047.2s-.039.1-.054.145c-.01.026-.019.054-.03.08a18.022,18.022,0,0,1-4.44,7.372A18.347,18.347,0,0,1,850.057,404.6Zm7.279-28.81-4.312,4.312,6.542,6.543A23.577,23.577,0,0,0,857.336,375.792Zm1.026,16.277-8.652-8.652-7.906,7.906,8.348,8.348a13.476,13.476,0,0,0,5.329-3.234A13.2,13.2,0,0,0,858.362,392.069ZM846.4,380.1l-10.424-10.426-7.908,7.906,10.426,10.426Zm-7.906,14.532-3.662,3.662a24.447,24.447,0,0,0,9.556,2.233Zm-13.013-2.822a32.579,32.579,0,0,0,5.07,4.139l4.63-4.63L824.752,380.9l-4.34,4.34A32.2,32.2,0,0,0,825.477,391.814Zm-8.727-18.919a23.4,23.4,0,0,0,1.529,7.85l3.161-3.159Zm4.1-11.084a13.456,13.456,0,0,0-3.232,5.329l7.132,7.132,7.908-7.906-7.438-7.438a13.237,13.237,0,0,0-4.368,2.883Zm10.8-4.106c-.335,0-.665.017-.994.035l5.313,5.313,3.811-3.813A23.7,23.7,0,0,0,831.653,357.7Zm19.194,8.74a32.14,32.14,0,0,0-6.575-5.065l-4.987,4.987,10.424,10.424,5.277-5.275A32.5,32.5,0,0,0,850.847,366.444Z" transform="translate(-802.374 -343.338)" fill="#dce1e8"/>
        <path id="Path_3525" data-name="Path 3525" d="M819.4,406.161c-15.176-15.176-17.252-37.794-4.63-50.416s35.24-10.543,50.416,4.632c12.956,12.954,16.557,31.934,8.825,45.023l26.367,26.369a7.951,7.951,0,0,1,6.119,2.326l15.928,15.928a8,8,0,0,1,.012,11.322l-2.07,2.069a8.013,8.013,0,0,1-11.322-.012L893.12,447.473a7.969,7.969,0,0,1-2.324-6.115l-26.371-26.371C851.338,422.72,832.356,419.117,819.4,406.161Zm77.032,38,15.926,15.928a3.325,3.325,0,0,0,4.7.012l2.069-2.069a3.284,3.284,0,0,0,.968-2.341,3.32,3.32,0,0,0-.978-2.355l-15.928-15.928a3.327,3.327,0,0,0-2.359-.977,3.376,3.376,0,0,0-.765.087,3.264,3.264,0,0,0-1.573.879l-2.069,2.067a3.288,3.288,0,0,0-.879,1.571A3.334,3.334,0,0,0,896.434,444.16Zm-30.028-33.818,26.287,26.287c.136-.161.265-.328.416-.479l2.069-2.069c.15-.148.316-.278.477-.414l-26.287-26.287a2.345,2.345,0,0,1-.269-2.993c7.817-11.266,4.712-28.763-7.223-40.7-13.351-13.349-32.993-15.428-43.791-4.632s-8.719,30.442,4.63,43.791c11.935,11.934,29.43,15.044,40.7,7.225A2.343,2.343,0,0,1,866.406,410.342Z" transform="translate(-806.511 -347.484)" fill="#dce1e8"/>
      </g>
    </g>
  </g>
</svg>
