<svg xmlns="http://www.w3.org/2000/svg" width="113.76" height="182.017" viewBox="0 0 113.76 182.017">
  <g id="qr-code-mob-icon" transform="translate(59 136)" opacity="0.3" style="mix-blend-mode: normal;isolation: isolate">
    <path id="Path_3471" data-name="Path 3471" d="M43.384-136H-47.624A11.39,11.39,0,0,0-59-124.624V34.641A11.39,11.39,0,0,0-47.624,46.017H43.384A11.39,11.39,0,0,0,54.76,34.641V-124.624A11.39,11.39,0,0,0,43.384-136ZM47.176,34.641a3.8,3.8,0,0,1-3.792,3.792H-47.624a3.8,3.8,0,0,1-3.792-3.792V-124.624a3.8,3.8,0,0,1,3.792-3.792H43.384a3.8,3.8,0,0,1,3.792,3.792Z" transform="translate(0 0)" fill="#dce1e8"/>
    <rect id="Rectangle_520" data-name="Rectangle 520" width="84" height="8" transform="translate(-44.24 -106)" fill="#dce1e8"/>
    <rect id="Rectangle_521" data-name="Rectangle 521" width="84" height="8" transform="translate(-44.24 8)" fill="#dce1e8"/>
    <rect id="Rectangle_522" data-name="Rectangle 522" width="45" height="8" transform="translate(-32.24 -121)" fill="#dce1e8"/>
    <rect id="Rectangle_523" data-name="Rectangle 523" width="7" height="8" transform="translate(20.76 -121)" fill="#dce1e8"/>
    <rect id="Rectangle_524" data-name="Rectangle 524" width="8" height="8" transform="translate(-6.24 23)" fill="#dce1e8"/>
    <path id="Path_3472" data-name="Path 3472" d="M-51.208-93.664h22.752a3.791,3.791,0,0,0,3.792-3.792v-22.752A3.791,3.791,0,0,0-28.456-124H-51.208A3.791,3.791,0,0,0-55-120.208v22.752A3.791,3.791,0,0,0-51.208-93.664Zm3.792-22.752h15.168v15.168H-47.416Z" transform="translate(11.168 33.504)" fill="#dce1e8"/>
    <path id="Path_3473" data-name="Path 3473" d="M-14.456-124H-37.208A3.791,3.791,0,0,0-41-120.208v22.752a3.791,3.791,0,0,0,3.792,3.792h22.752a3.791,3.791,0,0,0,3.792-3.792v-22.752A3.791,3.791,0,0,0-14.456-124Zm-3.792,22.752H-33.416v-15.168h15.168Z" transform="translate(50.256 33.504)" fill="#dce1e8"/>
    <path id="Path_3474" data-name="Path 3474" d="M-51.208-83.248h22.752a3.791,3.791,0,0,0,3.792-3.792V-98.416h-7.584v7.584H-47.416V-106H-55v18.96A3.791,3.791,0,0,0-51.208-83.248Z" transform="translate(11.168 83.76)" fill="#dce1e8"/>
    <path id="Path_3475" data-name="Path 3475" d="M-45-106.208V-72.08h7.584v-30.336H.5V-110H-41.208A3.791,3.791,0,0,0-45-106.208Z" transform="translate(39.088 72.592)" fill="#dce1e8"/>
    <path id="Path_3476" data-name="Path 3476" d="M-14.456-106H-41v7.584h22.752v7.584h-7.584v7.584h11.376a3.791,3.791,0,0,0,3.792-3.792v-15.168A3.791,3.791,0,0,0-14.456-106Z" transform="translate(50.256 83.76)" fill="#dce1e8"/>
    <rect id="Rectangle_525" data-name="Rectangle 525" width="8" height="8" transform="translate(8.76 -7)" fill="#dce1e8"/>
    <path id="Path_3477" data-name="Path 3477" d="M-9.5-82.288V-124H-17.08v37.92H-55V-78.5h41.712A3.791,3.791,0,0,0-9.5-82.288Z" transform="translate(11.168 33.504)" fill="#dce1e8"/>
    <rect id="Rectangle_526" data-name="Rectangle 526" width="8" height="8" transform="translate(8.76 -53)" fill="#dce1e8"/>
    <rect id="Rectangle_527" data-name="Rectangle 527" width="15" height="8" transform="translate(24.76 -53)" fill="#dce1e8"/>
    <path id="Path_3478" data-name="Path 3478" d="M-39.832-98.624a3.791,3.791,0,0,0,3.792,3.792h11.376v-7.584h-7.584v-3.792A3.791,3.791,0,0,0-36.04-110H-55v7.584h15.168Z" transform="translate(11.168 72.592)" fill="#dce1e8"/>
  </g>
</svg>
